<svg width="28" height="28" viewBox="0 0 28 28" fill="none" xmlns="http://www.w3.org/2000/svg">
<g clip-path="url(#clip0_294_3772)">
<path d="M28 14C28 6.26808 21.7319 0 14 0C6.26808 0 0 6.26808 0 14C0 20.5654 4.52032 26.0747 10.6182 27.5878V18.2784H7.73136V14H10.6182V12.1565C10.6182 7.39144 12.7747 5.1828 17.453 5.1828C18.34 5.1828 19.8705 5.35696 20.4966 5.53056V9.40856C20.1662 9.37384 19.5922 9.35648 18.8793 9.35648C16.5838 9.35648 15.6968 10.2262 15.6968 12.4869V14H20.2698L19.4841 18.2784H15.6968V27.8975C22.629 27.0603 28.0006 21.1579 28.0006 14H28Z" fill="#0866FF"/>
<path d="M19.4836 18.2783L20.2692 13.9999H15.6963V12.4868C15.6963 10.2261 16.5833 9.35642 18.8788 9.35642C19.5916 9.35642 20.1656 9.37378 20.496 9.4085V5.5305C19.87 5.35634 18.3395 5.18274 17.4524 5.18274C12.7742 5.18274 10.6176 7.39138 10.6176 12.1564V13.9999H7.73083V18.2783H10.6176V27.5878C11.7007 27.8566 12.8336 27.9999 13.9995 27.9999C14.5735 27.9999 15.1396 27.9647 15.6957 27.8975V18.2783H19.483H19.4836Z" fill="white"/>
</g>
<defs>
<clipPath id="clip0_294_3772">
<rect width="28" height="28" fill="white"/>
</clipPath>
</defs>
</svg>
