<svg width="29" height="28" viewBox="0 0 29 28" fill="none" xmlns="http://www.w3.org/2000/svg">
<g clip-path="url(#clip0_294_3775)">
<path d="M14.4996 11.4545V16.8763H22.0342C21.7033 18.6199 20.7105 20.0963 19.2214 21.0891L23.765 24.6145C26.4123 22.171 27.9396 18.5819 27.9396 14.3182C27.9396 13.3255 27.8505 12.3709 27.685 11.4546L14.4996 11.4545Z" fill="#4285F4"/>
<path d="M6.6538 16.6647L5.62904 17.4491L2.00171 20.2745C4.30534 24.8436 9.02681 28 14.4995 28C18.2794 28 21.4484 26.7527 23.7649 24.6146L19.2213 21.0891C17.974 21.9291 16.383 22.4382 14.4995 22.4382C10.8595 22.4382 7.76688 19.9819 6.65952 16.6728L6.6538 16.6647Z" fill="#34A853"/>
<path d="M2.00171 7.72546C1.04722 9.60902 0.5 11.7345 0.5 13.9999C0.5 16.2653 1.04722 18.3908 2.00171 20.2744C2.00171 20.287 6.65997 16.6598 6.65997 16.6598C6.37997 15.8198 6.21447 14.929 6.21447 13.9998C6.21447 13.0706 6.37997 12.1797 6.65997 11.3397L2.00171 7.72546Z" fill="#FBBC05"/>
<path d="M14.4998 5.57454C16.5616 5.57454 18.3943 6.28725 19.858 7.66181L23.867 3.65277C21.4361 1.38736 18.2798 0 14.4998 0C9.02709 0 4.30534 3.14363 2.00171 7.72546L6.65983 11.34C7.76703 8.03089 10.8598 5.57454 14.4998 5.57454Z" fill="#EA4335"/>
</g>
<defs>
<clipPath id="clip0_294_3775">
<rect width="28" height="28" fill="white" transform="translate(0.5)"/>
</clipPath>
</defs>
</svg>
