<svg width="117" height="32" viewBox="0 0 117 32" fill="none" xmlns="http://www.w3.org/2000/svg">
<path d="M10.635 1.00135H13.875V15.0013H10.635V1.00135ZM4.275 15.0013H1.035V1.00135H4.275V15.0013ZM10.875 9.26135H4.035V6.52135H10.875V9.26135Z" fill="#C62265"/>
<path d="M15.3473 15.0013L21.5873 1.00135H24.7873L31.0473 15.0013H27.6473L22.5273 2.64135H23.8073L18.6673 15.0013H15.3473ZM18.4673 12.0013L19.3273 9.54135H26.5273L27.4073 12.0013H18.4673Z" fill="#C62265"/>
<path d="M32.4998 15.0013V1.00135H38.5598C39.8132 1.00135 40.8932 1.20801 41.7998 1.62135C42.7065 2.02135 43.4065 2.60135 43.8998 3.36135C44.3932 4.12135 44.6398 5.02801 44.6398 6.08135C44.6398 7.12135 44.3932 8.02135 43.8998 8.78135C43.4065 9.52801 42.7065 10.1013 41.7998 10.5013C40.8932 10.9013 39.8132 11.1013 38.5598 11.1013H34.2998L35.7398 9.68135V15.0013H32.4998ZM41.3998 15.0013L37.8998 9.92135H41.3598L44.8998 15.0013H41.3998ZM35.7398 10.0413L34.2998 8.52135H38.3798C39.3798 8.52135 40.1265 8.30801 40.6198 7.88135C41.1132 7.44135 41.3598 6.84135 41.3598 6.08135C41.3598 5.30801 41.1132 4.70801 40.6198 4.28135C40.1265 3.85468 39.3798 3.64135 38.3798 3.64135H34.2998L35.7398 2.10135V10.0413Z" fill="#C62265"/>
<path d="M47.2069 15.0013V1.00135H53.5669C55.0869 1.00135 56.4269 1.29468 57.5869 1.88135C58.7469 2.45468 59.6535 3.26135 60.3069 4.30135C60.9602 5.34135 61.2869 6.57468 61.2869 8.00135C61.2869 9.41468 60.9602 10.648 60.3069 11.7013C59.6535 12.7413 58.7469 13.5547 57.5869 14.1413C56.4269 14.7147 55.0869 15.0013 53.5669 15.0013H47.2069ZM50.4469 12.3413H53.4069C54.3402 12.3413 55.1469 12.168 55.8269 11.8213C56.5202 11.4613 57.0535 10.9547 57.4269 10.3013C57.8135 9.64801 58.0069 8.88135 58.0069 8.00135C58.0069 7.10801 57.8135 6.34135 57.4269 5.70135C57.0535 5.04801 56.5202 4.54801 55.8269 4.20135C55.1469 3.84135 54.3402 3.66135 53.4069 3.66135H50.4469V12.3413Z" fill="#C62265"/>
<path d="M67.0703 15.0013V2.28135H62.1503V1.00135H73.4703V2.28135H68.5503V15.0013H67.0703Z" fill="#C62265"/>
<path d="M77.1547 7.26135H84.5547V8.52135H77.1547V7.26135ZM77.3147 13.7213H85.7347V15.0013H75.8347V1.00135H85.4347V2.28135H77.3147V13.7213Z" fill="#C62265"/>
<path d="M95.2545 15.1213C94.2012 15.1213 93.2279 14.948 92.3345 14.6013C91.4412 14.2413 90.6679 13.7413 90.0145 13.1013C89.3612 12.4613 88.8479 11.708 88.4745 10.8413C88.1145 9.97468 87.9345 9.02801 87.9345 8.00135C87.9345 6.97468 88.1145 6.02801 88.4745 5.16135C88.8479 4.29468 89.3612 3.54135 90.0145 2.90135C90.6812 2.26135 91.4612 1.76801 92.3545 1.42135C93.2479 1.06135 94.2212 0.881348 95.2745 0.881348C96.2879 0.881348 97.2412 1.05468 98.1345 1.40135C99.0279 1.73468 99.7812 2.24135 100.395 2.92135L99.4545 3.86135C98.8812 3.27468 98.2479 2.85468 97.5545 2.60135C96.8612 2.33468 96.1145 2.20135 95.3145 2.20135C94.4745 2.20135 93.6945 2.34801 92.9745 2.64135C92.2545 2.92135 91.6279 3.32801 91.0945 3.86135C90.5612 4.38135 90.1412 4.99468 89.8345 5.70135C89.5412 6.39468 89.3945 7.16135 89.3945 8.00135C89.3945 8.84135 89.5412 9.61468 89.8345 10.3213C90.1412 11.0147 90.5612 11.628 91.0945 12.1613C91.6279 12.6813 92.2545 13.088 92.9745 13.3813C93.6945 13.6613 94.4745 13.8013 95.3145 13.8013C96.1145 13.8013 96.8612 13.668 97.5545 13.4013C98.2479 13.1347 98.8812 12.708 99.4545 12.1213L100.395 13.0613C99.7812 13.7413 99.0279 14.2547 98.1345 14.6013C97.2412 14.948 96.2812 15.1213 95.2545 15.1213Z" fill="#C62265"/>
<path d="M113.79 1.00135H115.25V15.0013H113.79V1.00135ZM105.03 15.0013H103.55V1.00135H105.03V15.0013ZM113.93 8.54135H104.87V7.24135H113.93V8.54135Z" fill="#C62265"/>
<path d="M4.56445 23.6068L2.01562 31.0013H0.474609L3.68555 22.4701H4.66992L4.56445 23.6068ZM6.69727 31.0013L4.14258 23.6068L4.03125 22.4701H5.02148L8.24414 31.0013H6.69727ZM6.57422 27.8373V29.0033H1.93359V27.8373H6.57422Z" fill="#130D0D"/>
<path d="M10.5703 22.0013V31.0013H9.15234V22.0013H10.5703Z" fill="#130D0D"/>
<path d="M18.6797 29.7299V26.7064C18.6797 26.4799 18.6387 26.2846 18.5566 26.1205C18.4746 25.9564 18.3496 25.8295 18.1816 25.7396C18.0176 25.6498 17.8105 25.6049 17.5605 25.6049C17.3301 25.6049 17.1309 25.6439 16.9629 25.7221C16.7949 25.8002 16.6641 25.9056 16.5703 26.0385C16.4766 26.1713 16.4297 26.3217 16.4297 26.4896H15.0234C15.0234 26.2396 15.084 25.9974 15.2051 25.7631C15.3262 25.5287 15.502 25.3197 15.7324 25.1361C15.9629 24.9525 16.2383 24.808 16.5586 24.7025C16.8789 24.5971 17.2383 24.5443 17.6367 24.5443C18.1133 24.5443 18.5352 24.6244 18.9023 24.7846C19.2734 24.9447 19.5645 25.1869 19.7754 25.5111C19.9902 25.8314 20.0977 26.2338 20.0977 26.7181V29.5365C20.0977 29.8256 20.1172 30.0853 20.1562 30.3158C20.1992 30.5424 20.2598 30.7396 20.3379 30.9076V31.0013H18.8906C18.8242 30.849 18.7715 30.6556 18.7324 30.4213C18.6973 30.183 18.6797 29.9525 18.6797 29.7299ZM18.8848 27.1459L18.8965 28.0189H17.8828C17.6211 28.0189 17.3906 28.0443 17.1914 28.0951C16.9922 28.142 16.8262 28.2123 16.6934 28.306C16.5605 28.3998 16.4609 28.5131 16.3945 28.6459C16.3281 28.7787 16.2949 28.9291 16.2949 29.0971C16.2949 29.265 16.334 29.4193 16.4121 29.5599C16.4902 29.6967 16.6035 29.8041 16.752 29.8822C16.9043 29.9603 17.0879 29.9994 17.3027 29.9994C17.5918 29.9994 17.8438 29.9408 18.0586 29.8236C18.2773 29.7025 18.4492 29.556 18.5742 29.3842C18.6992 29.2084 18.7656 29.0424 18.7734 28.8861L19.2305 29.5131C19.1836 29.6732 19.1035 29.8451 18.9902 30.0287C18.877 30.2123 18.7285 30.3881 18.5449 30.556C18.3652 30.7201 18.1484 30.8549 17.8945 30.9603C17.6445 31.0658 17.3555 31.1185 17.0273 31.1185C16.6133 31.1185 16.2441 31.0365 15.9199 30.8724C15.5957 30.7045 15.3418 30.4799 15.1582 30.1986C14.9746 29.9135 14.8828 29.5912 14.8828 29.2318C14.8828 28.8959 14.9453 28.599 15.0703 28.3412C15.1992 28.0795 15.3867 27.8607 15.6328 27.6849C15.8828 27.5092 16.1875 27.3763 16.5469 27.2865C16.9062 27.1928 17.3164 27.1459 17.7773 27.1459H18.8848Z" fill="#130D0D"/>
<path d="M23.0859 22.0013V31.0013H21.668V22.0013H23.0859Z" fill="#130D0D"/>
<path d="M27.2227 29.9935C27.4531 29.9935 27.6602 29.9486 27.8438 29.8588C28.0312 29.765 28.1816 29.6361 28.2949 29.4721C28.4121 29.308 28.4766 29.1185 28.4883 28.9037H29.8184C29.8105 29.3138 29.6895 29.6869 29.4551 30.0228C29.2207 30.3588 28.9102 30.6263 28.5234 30.8256C28.1367 31.0209 27.709 31.1185 27.2402 31.1185C26.7559 31.1185 26.334 31.0365 25.9746 30.8724C25.6152 30.7045 25.3164 30.474 25.0781 30.181C24.8398 29.8881 24.6602 29.5502 24.5391 29.1674C24.4219 28.7846 24.3633 28.3744 24.3633 27.9369V27.7318C24.3633 27.2943 24.4219 26.8842 24.5391 26.5013C24.6602 26.1146 24.8398 25.7748 25.0781 25.4818C25.3164 25.1888 25.6152 24.9603 25.9746 24.7963C26.334 24.6283 26.7539 24.5443 27.2344 24.5443C27.7422 24.5443 28.1875 24.6459 28.5703 24.849C28.9531 25.0482 29.2539 25.3275 29.4727 25.6869C29.6953 26.0424 29.8105 26.4564 29.8184 26.9291H28.4883C28.4766 26.6947 28.418 26.4838 28.3125 26.2963C28.2109 26.1049 28.0664 25.9525 27.8789 25.8392C27.6953 25.726 27.4746 25.6693 27.2168 25.6693C26.9316 25.6693 26.6953 25.7279 26.5078 25.8451C26.3203 25.9584 26.1738 26.1146 26.0684 26.3138C25.9629 26.5092 25.8867 26.7299 25.8398 26.976C25.7969 27.2181 25.7754 27.4701 25.7754 27.7318V27.9369C25.7754 28.1986 25.7969 28.4525 25.8398 28.6986C25.8828 28.9447 25.957 29.1654 26.0625 29.3607C26.1719 29.5521 26.3203 29.7064 26.5078 29.8236C26.6953 29.9369 26.9336 29.9935 27.2227 29.9935Z" fill="#130D0D"/>
<path d="M34.4766 29.7299V26.7064C34.4766 26.4799 34.4355 26.2846 34.3535 26.1205C34.2715 25.9564 34.1465 25.8295 33.9785 25.7396C33.8145 25.6498 33.6074 25.6049 33.3574 25.6049C33.127 25.6049 32.9277 25.6439 32.7598 25.7221C32.5918 25.8002 32.4609 25.9056 32.3672 26.0385C32.2734 26.1713 32.2266 26.3217 32.2266 26.4896H30.8203C30.8203 26.2396 30.8809 25.9974 31.002 25.7631C31.123 25.5287 31.2988 25.3197 31.5293 25.1361C31.7598 24.9525 32.0352 24.808 32.3555 24.7025C32.6758 24.5971 33.0352 24.5443 33.4336 24.5443C33.9102 24.5443 34.332 24.6244 34.6992 24.7846C35.0703 24.9447 35.3613 25.1869 35.5723 25.5111C35.7871 25.8314 35.8945 26.2338 35.8945 26.7181V29.5365C35.8945 29.8256 35.9141 30.0853 35.9531 30.3158C35.9961 30.5424 36.0566 30.7396 36.1348 30.9076V31.0013H34.6875C34.6211 30.849 34.5684 30.6556 34.5293 30.4213C34.4941 30.183 34.4766 29.9525 34.4766 29.7299ZM34.6816 27.1459L34.6934 28.0189H33.6797C33.418 28.0189 33.1875 28.0443 32.9883 28.0951C32.7891 28.142 32.623 28.2123 32.4902 28.306C32.3574 28.3998 32.2578 28.5131 32.1914 28.6459C32.125 28.7787 32.0918 28.9291 32.0918 29.0971C32.0918 29.265 32.1309 29.4193 32.209 29.5599C32.2871 29.6967 32.4004 29.8041 32.5488 29.8822C32.7012 29.9603 32.8848 29.9994 33.0996 29.9994C33.3887 29.9994 33.6406 29.9408 33.8555 29.8236C34.0742 29.7025 34.2461 29.556 34.3711 29.3842C34.4961 29.2084 34.5625 29.0424 34.5703 28.8861L35.0273 29.5131C34.9805 29.6732 34.9004 29.8451 34.7871 30.0287C34.6738 30.2123 34.5254 30.3881 34.3418 30.556C34.1621 30.7201 33.9453 30.8549 33.6914 30.9603C33.4414 31.0658 33.1523 31.1185 32.8242 31.1185C32.4102 31.1185 32.041 31.0365 31.7168 30.8724C31.3926 30.7045 31.1387 30.4799 30.9551 30.1986C30.7715 29.9135 30.6797 29.5912 30.6797 29.2318C30.6797 28.8959 30.7422 28.599 30.8672 28.3412C30.9961 28.0795 31.1836 27.8607 31.4297 27.6849C31.6797 27.5092 31.9844 27.3763 32.3438 27.2865C32.7031 27.1928 33.1133 27.1459 33.5742 27.1459H34.6816Z" fill="#130D0D"/>
<path d="M38.7715 26.015V31.0013H37.3594V24.6615H38.6895L38.7715 26.015ZM38.5195 27.5971L38.0625 27.5912C38.0664 27.142 38.1289 26.7299 38.25 26.3549C38.375 25.9799 38.5469 25.6576 38.7656 25.3881C38.9883 25.1185 39.2539 24.9115 39.5625 24.767C39.8711 24.6185 40.2148 24.5443 40.5938 24.5443C40.8984 24.5443 41.1738 24.5873 41.4199 24.6732C41.6699 24.7553 41.8828 24.89 42.0586 25.0775C42.2383 25.265 42.375 25.5092 42.4688 25.8099C42.5625 26.1068 42.6094 26.4721 42.6094 26.9056V31.0013H41.1914V26.8998C41.1914 26.5951 41.1465 26.3549 41.0566 26.1791C40.9707 25.9994 40.8438 25.8724 40.6758 25.7982C40.5117 25.7201 40.3066 25.681 40.0605 25.681C39.8184 25.681 39.6016 25.7318 39.4102 25.8334C39.2188 25.9349 39.0566 26.0736 38.9238 26.2494C38.7949 26.4252 38.6953 26.6283 38.625 26.8588C38.5547 27.0892 38.5195 27.3353 38.5195 27.5971Z" fill="#130D0D"/>
<path d="M46.6406 29.9935C46.8711 29.9935 47.0781 29.9486 47.2617 29.8588C47.4492 29.765 47.5996 29.6361 47.7129 29.4721C47.8301 29.308 47.8945 29.1185 47.9062 28.9037H49.2363C49.2285 29.3138 49.1074 29.6869 48.873 30.0228C48.6387 30.3588 48.3281 30.6263 47.9414 30.8256C47.5547 31.0209 47.127 31.1185 46.6582 31.1185C46.1738 31.1185 45.752 31.0365 45.3926 30.8724C45.0332 30.7045 44.7344 30.474 44.4961 30.181C44.2578 29.8881 44.0781 29.5502 43.957 29.1674C43.8398 28.7846 43.7812 28.3744 43.7812 27.9369V27.7318C43.7812 27.2943 43.8398 26.8842 43.957 26.5013C44.0781 26.1146 44.2578 25.7748 44.4961 25.4818C44.7344 25.1888 45.0332 24.9603 45.3926 24.7963C45.752 24.6283 46.1719 24.5443 46.6523 24.5443C47.1602 24.5443 47.6055 24.6459 47.9883 24.849C48.3711 25.0482 48.6719 25.3275 48.8906 25.6869C49.1133 26.0424 49.2285 26.4564 49.2363 26.9291H47.9062C47.8945 26.6947 47.8359 26.4838 47.7305 26.2963C47.6289 26.1049 47.4844 25.9525 47.2969 25.8392C47.1133 25.726 46.8926 25.6693 46.6348 25.6693C46.3496 25.6693 46.1133 25.7279 45.9258 25.8451C45.7383 25.9584 45.5918 26.1146 45.4863 26.3138C45.3809 26.5092 45.3047 26.7299 45.2578 26.976C45.2148 27.2181 45.1934 27.4701 45.1934 27.7318V27.9369C45.1934 28.1986 45.2148 28.4525 45.2578 28.6986C45.3008 28.9447 45.375 29.1654 45.4805 29.3607C45.5898 29.5521 45.7383 29.7064 45.9258 29.8236C46.1133 29.9369 46.3516 29.9935 46.6406 29.9935Z" fill="#130D0D"/>
<path d="M53.1152 31.1185C52.6465 31.1185 52.2227 31.0424 51.8438 30.89C51.4688 30.7338 51.1484 30.517 50.8828 30.2396C50.6211 29.9623 50.4199 29.6361 50.2793 29.2611C50.1387 28.8861 50.0684 28.4818 50.0684 28.0482V27.8138C50.0684 27.3178 50.1406 26.8685 50.2852 26.4662C50.4297 26.0638 50.6309 25.7201 50.8887 25.4349C51.1465 25.1459 51.4512 24.9252 51.8027 24.7728C52.1543 24.6205 52.5352 24.5443 52.9453 24.5443C53.3984 24.5443 53.7949 24.6205 54.1348 24.7728C54.4746 24.9252 54.7559 25.14 54.9785 25.4174C55.2051 25.6908 55.373 26.017 55.4824 26.3959C55.5957 26.7748 55.6523 27.1928 55.6523 27.6498V28.2533H50.7539V27.2396H54.2578V27.1283C54.25 26.8744 54.1992 26.6361 54.1055 26.4135C54.0156 26.1908 53.877 26.0111 53.6895 25.8744C53.502 25.7377 53.252 25.6693 52.9395 25.6693C52.7051 25.6693 52.4961 25.7201 52.3125 25.8217C52.1328 25.9193 51.9824 26.0619 51.8613 26.2494C51.7402 26.4369 51.6465 26.6635 51.5801 26.9291C51.5176 27.1908 51.4863 27.4857 51.4863 27.8138V28.0482C51.4863 28.3256 51.5234 28.5834 51.5977 28.8217C51.6758 29.056 51.7891 29.2611 51.9375 29.4369C52.0859 29.6127 52.2656 29.7513 52.4766 29.8529C52.6875 29.9506 52.9277 29.9994 53.1973 29.9994C53.5371 29.9994 53.8398 29.931 54.1055 29.7943C54.3711 29.6576 54.6016 29.4642 54.7969 29.2142L55.541 29.9349C55.4043 30.1342 55.2266 30.3256 55.0078 30.5092C54.7891 30.6888 54.5215 30.8353 54.2051 30.9486C53.8926 31.0619 53.5293 31.1185 53.1152 31.1185Z" fill="#130D0D"/>
<path d="M63.6094 29.6888V22.0013H65.0273V31.0013H63.7441L63.6094 29.6888ZM59.4844 27.9017V27.7787C59.4844 27.2982 59.541 26.8607 59.6543 26.4662C59.7676 26.0678 59.9316 25.726 60.1465 25.4408C60.3613 25.1517 60.623 24.931 60.9316 24.7787C61.2402 24.6224 61.5879 24.5443 61.9746 24.5443C62.3574 24.5443 62.6934 24.6185 62.9824 24.767C63.2715 24.9154 63.5176 25.1283 63.7207 25.4056C63.9238 25.6791 64.0859 26.0072 64.207 26.39C64.3281 26.7689 64.4141 27.1908 64.4648 27.6556V28.0482C64.4141 28.5013 64.3281 28.9154 64.207 29.2904C64.0859 29.6654 63.9238 29.9896 63.7207 30.2631C63.5176 30.5365 63.2695 30.7474 62.9766 30.8959C62.6875 31.0443 62.3496 31.1185 61.9629 31.1185C61.5801 31.1185 61.2344 31.0385 60.9258 30.8783C60.6211 30.7181 60.3613 30.4935 60.1465 30.2045C59.9316 29.9154 59.7676 29.5756 59.6543 29.1849C59.541 28.7904 59.4844 28.3627 59.4844 27.9017ZM60.8965 27.7787V27.9017C60.8965 28.1908 60.9219 28.4603 60.9727 28.7103C61.0273 28.9603 61.1113 29.181 61.2246 29.3724C61.3379 29.5599 61.4844 29.7084 61.6641 29.8178C61.8477 29.9232 62.0664 29.976 62.3203 29.976C62.6406 29.976 62.9043 29.9056 63.1113 29.765C63.3184 29.6244 63.4805 29.4349 63.5977 29.1967C63.7188 28.9545 63.8008 28.6849 63.8438 28.3881V27.3275C63.8203 27.0971 63.7715 26.8822 63.6973 26.683C63.627 26.4838 63.5312 26.3099 63.4102 26.1615C63.2891 26.0092 63.1387 25.892 62.959 25.8099C62.7832 25.724 62.5742 25.681 62.332 25.681C62.0742 25.681 61.8555 25.7357 61.6758 25.8451C61.4961 25.9545 61.3477 26.1049 61.2305 26.2963C61.1172 26.4877 61.0332 26.7103 60.9785 26.9642C60.9238 27.2181 60.8965 27.4896 60.8965 27.7787Z" fill="#130D0D"/>
<path d="M69.2988 31.1185C68.8301 31.1185 68.4062 31.0424 68.0273 30.89C67.6523 30.7338 67.332 30.517 67.0664 30.2396C66.8047 29.9623 66.6035 29.6361 66.4629 29.2611C66.3223 28.8861 66.252 28.4818 66.252 28.0482V27.8138C66.252 27.3178 66.3242 26.8685 66.4688 26.4662C66.6133 26.0638 66.8145 25.7201 67.0723 25.4349C67.3301 25.1459 67.6348 24.9252 67.9863 24.7728C68.3379 24.6205 68.7188 24.5443 69.1289 24.5443C69.582 24.5443 69.9785 24.6205 70.3184 24.7728C70.6582 24.9252 70.9395 25.14 71.1621 25.4174C71.3887 25.6908 71.5566 26.017 71.666 26.3959C71.7793 26.7748 71.8359 27.1928 71.8359 27.6498V28.2533H66.9375V27.2396H70.4414V27.1283C70.4336 26.8744 70.3828 26.6361 70.2891 26.4135C70.1992 26.1908 70.0605 26.0111 69.873 25.8744C69.6855 25.7377 69.4355 25.6693 69.123 25.6693C68.8887 25.6693 68.6797 25.7201 68.4961 25.8217C68.3164 25.9193 68.166 26.0619 68.0449 26.2494C67.9238 26.4369 67.8301 26.6635 67.7637 26.9291C67.7012 27.1908 67.6699 27.4857 67.6699 27.8138V28.0482C67.6699 28.3256 67.707 28.5834 67.7812 28.8217C67.8594 29.056 67.9727 29.2611 68.1211 29.4369C68.2695 29.6127 68.4492 29.7513 68.6602 29.8529C68.8711 29.9506 69.1113 29.9994 69.3809 29.9994C69.7207 29.9994 70.0234 29.931 70.2891 29.7943C70.5547 29.6576 70.7852 29.4642 70.9805 29.2142L71.7246 29.9349C71.5879 30.1342 71.4102 30.3256 71.1914 30.5092C70.9727 30.6888 70.7051 30.8353 70.3887 30.9486C70.0762 31.0619 69.7129 31.1185 69.2988 31.1185Z" fill="#130D0D"/>
<path d="M79.7402 29.5072V24.6615H81.1582V31.0013H79.8223L79.7402 29.5072ZM79.9395 28.1888L80.4141 28.1771C80.4141 28.6029 80.3672 28.9955 80.2734 29.3549C80.1797 29.7103 80.0352 30.0209 79.8398 30.2865C79.6445 30.5482 79.3945 30.7533 79.0898 30.9017C78.7852 31.0463 78.4199 31.1185 77.9941 31.1185C77.6855 31.1185 77.4023 31.0736 77.1445 30.9838C76.8867 30.8939 76.6641 30.7553 76.4766 30.5678C76.293 30.3803 76.1504 30.1361 76.0488 29.8353C75.9473 29.5346 75.8965 29.1752 75.8965 28.7572V24.6615H77.3086V28.7689C77.3086 28.9994 77.3359 29.1928 77.3906 29.349C77.4453 29.5013 77.5195 29.6244 77.6133 29.7181C77.707 29.8119 77.8164 29.8783 77.9414 29.9174C78.0664 29.9564 78.1992 29.976 78.3398 29.976C78.7422 29.976 79.0586 29.8978 79.2891 29.7416C79.5234 29.5814 79.6895 29.3666 79.7871 29.0971C79.8887 28.8275 79.9395 28.5248 79.9395 28.1888Z" fill="#130D0D"/>
<path d="M84.0059 26.015V31.0013H82.5938V24.6615H83.9238L84.0059 26.015ZM83.7539 27.5971L83.2969 27.5912C83.3008 27.142 83.3633 26.7299 83.4844 26.3549C83.6094 25.9799 83.7812 25.6576 84 25.3881C84.2227 25.1185 84.4883 24.9115 84.7969 24.767C85.1055 24.6185 85.4492 24.5443 85.8281 24.5443C86.1328 24.5443 86.4082 24.5873 86.6543 24.6732C86.9043 24.7553 87.1172 24.89 87.293 25.0775C87.4727 25.265 87.6094 25.5092 87.7031 25.8099C87.7969 26.1068 87.8438 26.4721 87.8438 26.9056V31.0013H86.4258V26.8998C86.4258 26.5951 86.3809 26.3549 86.291 26.1791C86.2051 25.9994 86.0781 25.8724 85.9102 25.7982C85.7461 25.7201 85.541 25.681 85.2949 25.681C85.0527 25.681 84.8359 25.7318 84.6445 25.8334C84.4531 25.9349 84.291 26.0736 84.1582 26.2494C84.0293 26.4252 83.9297 26.6283 83.8594 26.8588C83.7891 27.0892 83.7539 27.3353 83.7539 27.5971Z" fill="#130D0D"/>
<path d="M94.8633 29.9935C95.0938 29.9935 95.3008 29.9486 95.4844 29.8588C95.6719 29.765 95.8223 29.6361 95.9355 29.4721C96.0527 29.308 96.1172 29.1185 96.1289 28.9037H97.459C97.4512 29.3138 97.3301 29.6869 97.0957 30.0228C96.8613 30.3588 96.5508 30.6263 96.1641 30.8256C95.7773 31.0209 95.3496 31.1185 94.8809 31.1185C94.3965 31.1185 93.9746 31.0365 93.6152 30.8724C93.2559 30.7045 92.957 30.474 92.7188 30.181C92.4805 29.8881 92.3008 29.5502 92.1797 29.1674C92.0625 28.7846 92.0039 28.3744 92.0039 27.9369V27.7318C92.0039 27.2943 92.0625 26.8842 92.1797 26.5013C92.3008 26.1146 92.4805 25.7748 92.7188 25.4818C92.957 25.1888 93.2559 24.9603 93.6152 24.7963C93.9746 24.6283 94.3945 24.5443 94.875 24.5443C95.3828 24.5443 95.8281 24.6459 96.2109 24.849C96.5938 25.0482 96.8945 25.3275 97.1133 25.6869C97.3359 26.0424 97.4512 26.4564 97.459 26.9291H96.1289C96.1172 26.6947 96.0586 26.4838 95.9531 26.2963C95.8516 26.1049 95.707 25.9525 95.5195 25.8392C95.3359 25.726 95.1152 25.6693 94.8574 25.6693C94.5723 25.6693 94.3359 25.7279 94.1484 25.8451C93.9609 25.9584 93.8145 26.1146 93.709 26.3138C93.6035 26.5092 93.5273 26.7299 93.4805 26.976C93.4375 27.2181 93.416 27.4701 93.416 27.7318V27.9369C93.416 28.1986 93.4375 28.4525 93.4805 28.6986C93.5234 28.9447 93.5977 29.1654 93.7031 29.3607C93.8125 29.5521 93.9609 29.7064 94.1484 29.8236C94.3359 29.9369 94.5742 29.9935 94.8633 29.9935Z" fill="#130D0D"/>
<path d="M100.055 22.0013V31.0013H98.6367V22.0013H100.055Z" fill="#130D0D"/>
<path d="M103.113 24.6615V31.0013H101.695V24.6615H103.113ZM101.602 22.9974C101.602 22.7826 101.672 22.6049 101.812 22.4642C101.957 22.3197 102.156 22.2474 102.41 22.2474C102.66 22.2474 102.857 22.3197 103.002 22.4642C103.146 22.6049 103.219 22.7826 103.219 22.9974C103.219 23.2084 103.146 23.3842 103.002 23.5248C102.857 23.6654 102.66 23.7357 102.41 23.7357C102.156 23.7357 101.957 23.6654 101.812 23.5248C101.672 23.3842 101.602 23.2084 101.602 22.9974Z" fill="#130D0D"/>
<path d="M107.25 29.9935C107.48 29.9935 107.688 29.9486 107.871 29.8588C108.059 29.765 108.209 29.6361 108.322 29.4721C108.439 29.308 108.504 29.1185 108.516 28.9037H109.846C109.838 29.3138 109.717 29.6869 109.482 30.0228C109.248 30.3588 108.938 30.6263 108.551 30.8256C108.164 31.0209 107.736 31.1185 107.268 31.1185C106.783 31.1185 106.361 31.0365 106.002 30.8724C105.643 30.7045 105.344 30.474 105.105 30.181C104.867 29.8881 104.688 29.5502 104.566 29.1674C104.449 28.7846 104.391 28.3744 104.391 27.9369V27.7318C104.391 27.2943 104.449 26.8842 104.566 26.5013C104.688 26.1146 104.867 25.7748 105.105 25.4818C105.344 25.1888 105.643 24.9603 106.002 24.7963C106.361 24.6283 106.781 24.5443 107.262 24.5443C107.77 24.5443 108.215 24.6459 108.598 24.849C108.98 25.0482 109.281 25.3275 109.5 25.6869C109.723 26.0424 109.838 26.4564 109.846 26.9291H108.516C108.504 26.6947 108.445 26.4838 108.34 26.2963C108.238 26.1049 108.094 25.9525 107.906 25.8392C107.723 25.726 107.502 25.6693 107.244 25.6693C106.959 25.6693 106.723 25.7279 106.535 25.8451C106.348 25.9584 106.201 26.1146 106.096 26.3138C105.99 26.5092 105.914 26.7299 105.867 26.976C105.824 27.2181 105.803 27.4701 105.803 27.7318V27.9369C105.803 28.1986 105.824 28.4525 105.867 28.6986C105.91 28.9447 105.984 29.1654 106.09 29.3607C106.199 29.5521 106.348 29.7064 106.535 29.8236C106.723 29.9369 106.961 29.9935 107.25 29.9935Z" fill="#130D0D"/>
<path d="M112.354 22.0013V31.0013H110.936V22.0013H112.354ZM116.291 24.6615L113.531 27.7201L112.02 29.267L111.65 28.0717L112.793 26.6596L114.586 24.6615H116.291ZM114.891 31.0013L112.834 28.0248L113.725 27.0346L116.525 31.0013H114.891Z" fill="#130D0D"/>
</svg>
